
 
http://www.imdb.com/title/tt1408101/


After the crew of the Enterprise find an unstoppable force of terror from within their own organization, Captain Kirk leads a manhunt to a war-zone world to capture a one man weapon of mass destruction. 



Director:
 J.J. Abrams 

Writers:
 Roberto Orci, Alex Kurtzman

Stars:
 Chris Pine, Zachary Quinto, Zoe Saldana

Genres:
  Action |  Adventure |  Sci-Fi 

Country:
 USA 

Language:
 English | Klingon 




Format                                   : AVI
Format/Info                              : Audio Video Interleave
File size                                : 1.68 GiB
Duration                                 : 2h 2mn
Overall bit rate                         : 1 964 Kbps
Writing application                      : Nandub v1.0rc2
Writing library                          : Nandub build 1853/release

Video
ID                                       : 0
Format                                   : MPEG-4 Visual
Format profile                           : Advanced Simple@L5
Format settings, BVOP                    : 2
Format settings, QPel                    : Yes
Format settings, GMC                     : No warppoints
Format settings, Matrix                  : Default (H.263)
Muxing mode                              : Packed bitstream
Codec ID                                 : XVID
Codec ID/Hint                            : XviD
Duration                                 : 2h 2mn
Bit rate                                 : 1 699 Kbps
Width                                    : 720 pixels
Height                                   : 320 pixels
Display aspect ratio                     : 2.25:1
Frame rate                               : 25.000 fps
Color space                              : YUV
Chroma subsampling                       : 4:2:0
Bit depth                                : 8 bits
Scan type                                : Progressive
Compression mode                         : Lossy
Bits/(Pixel*Frame)                       : 0.295
Stream size                              : 1.45 GiB (86%)
Writing library                          : XviD 1.2.1 (UTC 2008-12-04)

Audio
ID                                       : 1
Format                                   : AC-3
Format/Info                              : Audio Coding 3
Mode extension                           : CM (complete main)
Format settings, Endianness              : Big
Codec ID                                 : 2000
Duration                                 : 2h 2mn
Bit rate mode                            : Constant
Bit rate                                 : 256 Kbps
Channel(s)                               : 2 channels
Channel positions                        : Front: L R
Sampling rate                            : 48.0 KHz
Bit depth                                : 16 bits
Compression mode                         : Lossy
Stream size                              : 224 MiB (13%)
Alignment                                : Split accross interleaves
Interleave, duration                     : 40 ms (1.00 video frame)
Interleave, preload duration             : 500 ms




    	http://addpix.net/viewer.php?file=41560578360536754695.jpg
    	http://addpix.net/viewer.php?file=66677703260644175596.jpg
    	http://addpix.net/viewer.php?file=53338365500728567452.jpg
    	http://addpix.net/viewer.php?file=02834489086329633861.jpg
    	http://addpix.net/viewer.php?file=99149517306626358911.jpg
    	http://addpix.net/viewer.php?file=72896348376642107115.jpg